<svg width="28" height="28" viewBox="0 0 28 28" fill="none" xmlns="http://www.w3.org/2000/svg">
<g id="CirclesThreePlus">
<path id="Vector" d="M21.3125 17.375V25.25M25.25 21.3125H17.375M11.75 6.6875C11.75 9.48344 9.48344 11.75 6.6875 11.75C3.89156 11.75 1.625 9.48344 1.625 6.6875C1.625 3.89156 3.89156 1.625 6.6875 1.625C9.48344 1.625 11.75 3.89156 11.75 6.6875ZM26.375 6.6875C26.375 9.48344 24.1084 11.75 21.3125 11.75C18.5166 11.75 16.25 9.48344 16.25 6.6875C16.25 3.89156 18.5166 1.625 21.3125 1.625C24.1084 1.625 26.375 3.89156 26.375 6.6875ZM11.75 21.3125C11.75 24.1084 9.48344 26.375 6.6875 26.375C3.89156 26.375 1.625 24.1084 1.625 21.3125C1.625 18.5166 3.89156 16.25 6.6875 16.25C9.48344 16.25 11.75 18.5166 11.75 21.3125Z" stroke="white" stroke-width="2" stroke-linecap="round" stroke-linejoin="round"/>
</g>
</svg>
