<svg width="22" height="31" viewBox="0 0 22 31" fill="none" xmlns="http://www.w3.org/2000/svg">
<g id="FigmaLogo">
<path id="Vector" d="M15.6099 10.8145C12.9693 10.8145 10.8286 12.9551 10.8286 15.5957C10.8286 18.2363 12.9693 20.377 15.6099 20.377C18.2505 20.377 20.3911 18.2363 20.3911 15.5957C20.3911 12.9551 18.2505 10.8145 15.6099 10.8145ZM15.6099 10.8145C16.8779 10.8145 18.0941 10.3107 18.9907 9.41406C19.8874 8.5174 20.3911 7.30127 20.3911 6.0332C20.3911 4.76514 19.8874 3.54901 18.9907 2.65235C18.0941 1.75569 16.8779 1.25195 15.6099 1.25195H10.8286M15.6099 10.8145L10.8286 10.8143M10.8286 10.8143V1.25195M10.8286 10.8143L6.04736 10.8145M10.8286 10.8143V20.3768M10.8286 1.25195H6.04736C4.7793 1.25195 3.56317 1.75569 2.66651 2.65235C1.76985 3.54901 1.26611 4.76514 1.26611 6.0332C1.26611 7.30127 1.76985 8.5174 2.66651 9.41406C3.56317 10.3107 4.7793 10.8145 6.04736 10.8145M6.04736 10.8145C4.7793 10.8145 3.56317 11.3182 2.66651 12.2148C1.76985 13.1115 1.26611 14.3276 1.26611 15.5957C1.26611 16.8638 1.76985 18.0799 2.66651 18.9766C3.56317 19.8732 4.7793 20.377 6.04736 20.377M10.8286 20.3768L6.04736 20.377M10.8286 20.3768L10.8286 25.1583C10.8286 26.1039 10.5482 27.0283 10.0229 27.8146C9.4975 28.6009 8.75077 29.2137 7.87711 29.5756C7.00346 29.9375 6.0421 30.0322 5.11463 29.8477C4.18715 29.6632 3.33521 29.2079 2.66653 28.5392C1.99786 27.8705 1.54248 27.0186 1.35799 26.0911C1.1735 25.1637 1.26818 24.2023 1.63006 23.3286C1.99194 22.455 2.60476 21.7082 3.39104 21.1829C4.17731 20.6575 5.10172 20.377 6.04736 20.377" stroke="white" stroke-width="2" stroke-linecap="round" stroke-linejoin="round"/>
</g>
</svg>
